<svg width="28" height="25" viewBox="0 0 28 25" fill="none" xmlns="http://www.w3.org/2000/svg">
<path d="M24.2202 15.7368H10.4024L10.7109 17.2452H23.3632C24.0892 17.2452 24.6272 17.9193 24.4663 18.6272L24.2063 19.7714C25.0873 20.1991 25.6948 21.1022 25.6948 22.1473C25.6948 23.6181 24.4919 24.8079 23.0163 24.7867C21.6106 24.7665 20.4545 23.6257 20.4165 22.2203C20.3958 21.4526 20.7033 20.7567 21.2086 20.2618H11.3265C11.8156 20.741 12.1195 21.4085 12.1195 22.1473C12.1195 23.6469 10.8691 24.8544 9.35403 24.7841C8.00875 24.7216 6.91467 23.6346 6.84397 22.2897C6.78938 21.2511 7.33588 20.3357 8.16619 19.8582L4.855 3.66987H1.56096C0.936168 3.66987 0.429688 3.16339 0.429688 2.53859V1.78441C0.429688 1.15962 0.936168 0.653137 1.56096 0.653137H6.39381C6.93122 0.653137 7.39443 1.03122 7.50213 1.55769L7.93418 3.66987H26.4485C27.1745 3.66987 27.7125 4.34397 27.5517 5.05186L25.3234 14.8562C25.2063 15.3713 24.7485 15.7368 24.2202 15.7368ZM19.6614 8.57206H17.3988V6.6866C17.3988 6.27006 17.0612 5.93242 16.6446 5.93242H15.8904C15.4739 5.93242 15.1363 6.27006 15.1363 6.6866V8.57206H12.8737C12.4572 8.57206 12.1195 8.9097 12.1195 9.32624V10.0804C12.1195 10.497 12.4572 10.8346 12.8737 10.8346H15.1363V12.7201C15.1363 13.1366 15.4739 13.4742 15.8904 13.4742H16.6446C17.0612 13.4742 17.3988 13.1366 17.3988 12.7201V10.8346H19.6614C20.0779 10.8346 20.4155 10.497 20.4155 10.0804V9.32624C20.4155 8.9097 20.0779 8.57206 19.6614 8.57206Z" fill="white"/>
</svg>
