<svg width="19" height="22" viewBox="0 0 19 22" fill="none" xmlns="http://www.w3.org/2000/svg">
<path d="M0.673377 4.26564H18.1812C18.5531 4.26564 18.8546 3.86889 18.8546 3.37942V1.16387C18.8546 0.674398 18.5531 0.277649 18.1812 0.277649H0.673377C0.301463 0.277649 0 0.674398 0 1.16387V3.37942C0 3.86889 0.301463 4.26564 0.673377 4.26564ZM0.673377 13.1278H18.1812C18.5531 13.1278 18.8546 12.7311 18.8546 12.2416V10.0261C18.8546 9.5366 18.5531 9.13985 18.1812 9.13985H0.673377C0.301463 9.13985 0 9.5366 0 10.0261V12.2416C0 12.7311 0.301463 13.1278 0.673377 13.1278ZM0.673377 21.99H18.1812C18.5531 21.99 18.8546 21.5933 18.8546 21.1038V18.8883C18.8546 18.3988 18.5531 18.002 18.1812 18.002H0.673377C0.301463 18.002 0 18.3988 0 18.8883V21.1038C0 21.5933 0.301463 21.99 0.673377 21.99Z" fill="white"/>
</svg>
