<svg width="22" height="25" viewBox="0 0 22 25" fill="none" xmlns="http://www.w3.org/2000/svg">
<path d="M10.5586 12.7201C13.8911 12.7201 16.592 10.0191 16.592 6.6866C16.592 3.35405 13.8911 0.653137 10.5586 0.653137C7.22601 0.653137 4.5251 3.35405 4.5251 6.6866C4.5251 10.0191 7.22601 12.7201 10.5586 12.7201ZM14.782 14.2284H13.9948C12.9484 14.7092 11.7841 14.9826 10.5586 14.9826C9.33301 14.9826 8.17346 14.7092 7.12231 14.2284H6.33513C2.83761 14.2284 0 17.066 0 20.5636V22.5244C0 23.7736 1.01343 24.787 2.26255 24.787H18.8546C20.1037 24.787 21.1171 23.7736 21.1171 22.5244V20.5636C21.1171 17.066 18.2795 14.2284 14.782 14.2284Z" fill="white"/>
</svg>
