<?xml version="1.0" encoding="utf-8"?>
<!-- Generator: Adobe Illustrator 27.0.0, SVG Export Plug-In . SVG Version: 6.00 Build 0)  -->
<svg version="1.1" id="Layer_1" xmlns="http://www.w3.org/2000/svg" xmlns:xlink="http://www.w3.org/1999/xlink" x="0px" y="0px"
	 viewBox="0 0 157.3 157.3" style="enable-background:new 0 0 157.3 157.3;" xml:space="preserve">
<style type="text/css">
	.st0{fill:#E7C11C;}
	.st1{fill:#D1813E;}
	.st2{fill:#F9F6B9;}
	.st3{fill:#443952;}
	.st4{fill:#E7E4DA;}
	.st5{fill:#F24B2A;}
</style>
<g>
	<path class="st0" d="M54.4,40.1c0.1,0.7,24.7,83.6,24.7,83.6l4.5-0.9L84,41.3L54.4,40.1z"/>
	<polygon class="st0" points="79.2,126.1 44.9,61.4 73.6,66.6 85.1,124.5 	"/>
	<polygon class="st1" points="43,59.5 44.8,64.2 74.6,69.1 74.5,65.1 	"/>
	<polygon class="st0" points="68.3,57.3 81.9,126 87.6,124.9 115.9,36 	"/>
	<polygon class="st1" points="67.3,60 117.1,39.7 117.4,33.1 66.2,56.8 	"/>
	<path class="st1" d="M79.6,119.5c-0.1,0-0.2-0.1-0.3-0.2L68.4,57.9c0-0.1,0.1-0.3,0.2-0.3c0.1,0,0.3,0.1,0.3,0.2l10.9,61.4
		C79.8,119.3,79.8,119.5,79.6,119.5C79.6,119.5,79.6,119.5,79.6,119.5z"/>
	<polygon class="st1" points="54.2,42.4 84.7,42.9 84.6,40.5 53.1,38.7 	"/>
	<path class="st1" d="M96.9,88C96.9,88,96.8,88,96.9,88c-0.2,0-0.3-0.2-0.3-0.3l10.4-40.2c0-0.1,0.2-0.2,0.3-0.2
		c0.1,0,0.2,0.2,0.2,0.3L97.1,87.8C97.1,87.9,97,88,96.9,88z"/>
	<path class="st1" d="M91.3,103.7C91.3,103.7,91.3,103.7,91.3,103.7c-0.2-0.1-0.3-0.2-0.2-0.3l3-9.6c0-0.1,0.2-0.2,0.3-0.2
		c0.1,0,0.2,0.2,0.2,0.3l-3,9.6C91.5,103.6,91.4,103.7,91.3,103.7z"/>
	<path class="st2" d="M70.6,105.2c-0.1,0-0.2-0.1-0.2-0.1l-19-36.4c-0.1-0.1,0-0.3,0.1-0.4c0.1-0.1,0.3,0,0.4,0.1l19,36.4
		c0.1,0.1,0,0.3-0.1,0.4C70.7,105.2,70.7,105.2,70.6,105.2z"/>
	<path class="st2" d="M62.9,60.8c-0.1,0-0.2-0.1-0.3-0.2l-4.3-16.2c0-0.1,0-0.3,0.2-0.3c0.1,0,0.3,0,0.3,0.2l4.3,16.2
		C63.2,60.6,63.1,60.8,62.9,60.8C63,60.8,62.9,60.8,62.9,60.8z"/>
	<polygon class="st3" points="53.9,118.6 109.6,116.5 111.2,137.8 55.9,140.8 	"/>
	<polygon class="st4" points="53.4,137.8 113.6,134.5 113.4,139.5 54.3,142.7 	"/>
	<polygon class="st4" points="61.3,121.9 103,119.7 103.5,131.5 62.1,133.8 	"/>
	<path class="st3" d="M69.4,129.7c-0.6,0-1.1-0.2-1.6-0.5c-1.3-1-1.4-3.3-1.4-3.4c0-0.1,0.1-0.3,0.3-0.3c0,0,0,0,0,0
		c0.1,0,0.3,0.1,0.3,0.3c0,0,0,2.1,1.2,3c0.5,0.4,1.2,0.5,2.1,0.3c1.5-0.4,2.5-1.5,3.3-2.4c0.8-0.9,1.5-1.6,2.3-1.6
		c0.5,0,1,0.3,1.6,0.8c1.1,1.1,1.5,0.9,2.3,0.6c1-0.4,2.3-0.9,5.2,0.5c2.8,1.4,3.6,0.9,4.4,0.4c0.7-0.4,1.4-0.9,3.2-0.2
		c1.9,0.7,2.7,0.2,3.4-0.3c0.7-0.5,1.4-0.9,2.6,0.1c0.1,0.1,0.1,0.3,0,0.4c-0.1,0.1-0.3,0.1-0.4,0c-1-0.8-1.4-0.5-2-0.1
		c-0.7,0.5-1.7,1.1-3.8,0.4c-1.6-0.6-2.1-0.2-2.8,0.2c-0.9,0.5-1.8,1.1-4.9-0.4c-2.7-1.3-3.9-0.9-4.8-0.5c-0.8,0.3-1.6,0.6-2.9-0.7
		c-0.4-0.4-0.8-0.7-1.2-0.7c0,0,0,0,0,0c-0.6,0-1.2,0.7-1.9,1.4c-0.9,1-2,2.1-3.6,2.6C70.1,129.6,69.7,129.7,69.4,129.7z"/>
	<path class="st0" d="M108,94.8c0,0,0,4.7-2.7,6.5c0,0,3.1,1.7,3.2,6.5c0,0,1.8-7.6,2.7-7.6C111.2,100.3,109,100.4,108,94.8z"/>
	<path class="st0" d="M38.9,34.4c0,0,0,4.7-2.7,6.5c0,0,3.1,1.7,3.2,6.5c0,0,1.8-7.6,2.7-7.6C42.1,39.9,39.9,40,38.9,34.4z"/>
	<path class="st3" d="M64.6,25.7c-0.4,0-0.7-0.2-0.9-0.6c-0.3-0.5-0.2-1.2,0.2-1.8c0.2-0.4,0.6-0.6,1-0.7c0.1,0,0.1,0,0.2,0
		c-0.2-0.3-0.5-0.5-0.7-0.7c-0.6-0.5-1.4-0.9-2-1c0.1,0.6,0.1,1.1-0.1,1.7c-0.3,0.9-0.8,1-1,1c-0.4,0-0.9-0.4-1-1
		c-0.2-0.6-0.1-1.4,0.6-1.9c0.2-0.1,0.5-0.2,0.7-0.3c-0.1-0.1-0.1-0.2-0.2-0.3c-0.5-0.7-1.2-1.2-2-1.5c0.1,0.5,0,0.9-0.2,1.4
		c-0.4,0.8-1,0.7-1.3,0.6c-0.7-0.2-1.2-1.1-1.1-1.7c0-0.3,0.2-0.9,1.3-1c0.2,0,0.4,0,0.6,0c-0.4-1.2-1.4-2.4-1.9-3
		c-0.1-0.1-0.1-0.3,0-0.4c0.1-0.1,0.3-0.1,0.4,0c0.1,0.1,1.6,1.8,2.1,3.4c1,0.3,1.9,0.9,2.6,1.7c0.2,0.2,0.3,0.4,0.4,0.6
		c0.8,0.1,1.8,0.5,2.5,1.1c0.5,0.4,0.8,0.7,1,1.1c1.2,0.1,2.5,1,2.6,1c0.1,0.1,0.2,0.2,0.1,0.4c-0.1,0.1-0.2,0.2-0.4,0.1
		c0,0-1-0.7-2-0.9c0.2,0.4,0.2,0.9,0,1.3C65.6,25.3,65.2,25.7,64.6,25.7C64.6,25.7,64.6,25.7,64.6,25.7z M65.3,23.2
		c-0.1,0-0.2,0-0.4,0c-0.3,0.1-0.5,0.2-0.7,0.5c-0.3,0.4-0.3,0.9-0.1,1.2c0.1,0.2,0.3,0.3,0.5,0.3c0.3,0,0.6-0.3,0.8-0.8
		C65.6,24,65.5,23.6,65.3,23.2C65.3,23.2,65.3,23.2,65.3,23.2z M61.7,20.9c-0.3,0-0.5,0.1-0.7,0.2c-0.5,0.3-0.5,0.9-0.4,1.3
		c0.1,0.4,0.3,0.6,0.5,0.7c0.2,0,0.4-0.2,0.5-0.6C61.9,22,61.9,21.5,61.7,20.9z M58.1,18.4c-0.1,0-0.1,0-0.2,0
		c-0.5,0-0.7,0.2-0.8,0.5c-0.1,0.4,0.3,1.1,0.8,1.2c0.1,0,0.4,0.1,0.6-0.4c0.2-0.4,0.2-0.8,0.1-1.3C58.5,18.5,58.3,18.4,58.1,18.4z"
		/>
	<path class="st3" d="M39.1,75.5c-0.3,0-0.5-0.1-0.7-0.3c-0.5-0.4-0.6-1-0.5-1.7c0.1-0.4,0.3-0.8,0.7-1c0,0,0.1-0.1,0.1-0.1
		c-0.3-0.2-0.6-0.3-0.9-0.4c-0.8-0.3-1.6-0.3-2.2-0.2c0.3,0.5,0.5,1,0.5,1.6c0,0.9-0.4,1.2-0.7,1.3c-0.4,0.1-0.9-0.1-1.3-0.6
		c-0.4-0.5-0.6-1.3-0.1-2c0.1-0.2,0.4-0.4,0.6-0.5c-0.1-0.1-0.2-0.2-0.3-0.2c-0.7-0.5-1.6-0.7-2.4-0.7c0.2,0.4,0.4,0.9,0.3,1.3
		c-0.1,0.9-0.7,1-1,1c-0.7,0-1.5-0.6-1.7-1.3c-0.1-0.3-0.1-0.9,0.9-1.3c0.2-0.1,0.4-0.1,0.6-0.2c-0.8-1-2.1-1.8-2.8-2.1
		c-0.1-0.1-0.2-0.2-0.1-0.4c0.1-0.1,0.2-0.2,0.4-0.1c0.1,0.1,2.1,1.1,3.2,2.5c1-0.1,2.1,0.2,3,0.8c0.2,0.1,0.4,0.3,0.6,0.5
		c0.8-0.2,1.9-0.1,2.8,0.2c0.5,0.2,1,0.4,1.4,0.7c1.2-0.3,2.7,0.1,2.8,0.1c0.1,0,0.2,0.2,0.2,0.3c0,0.1-0.2,0.2-0.3,0.2
		c0,0-1.2-0.3-2.2-0.2c0.3,0.4,0.5,0.8,0.5,1.2c0,0.8-0.3,1.3-0.8,1.5C39.4,75.5,39.2,75.5,39.1,75.5z M39.3,72.8
		c-0.1,0-0.2,0.1-0.3,0.2c-0.3,0.2-0.4,0.4-0.5,0.7c-0.1,0.5,0,1,0.3,1.2c0.2,0.1,0.4,0.2,0.6,0.1c0.3-0.1,0.5-0.5,0.5-1.1
		C39.8,73.5,39.6,73.1,39.3,72.8z M35.1,72c-0.2,0.1-0.4,0.2-0.6,0.4c-0.3,0.5-0.2,1,0.1,1.4c0.2,0.3,0.5,0.5,0.7,0.4
		c0.2-0.1,0.3-0.3,0.3-0.8C35.6,72.9,35.4,72.4,35.1,72z M31.4,70.7c-0.2,0-0.5,0.1-0.7,0.2c-0.4,0.2-0.6,0.4-0.6,0.7
		c0.1,0.4,0.7,0.9,1.1,0.9c0.1,0,0.4,0,0.5-0.6C31.8,71.5,31.7,71.1,31.4,70.7z"/>
	<path class="st3" d="M113.7,86.5c-0.1,0-0.2,0-0.4,0c-0.3-0.1-0.9-0.4-0.7-1.4c0-0.2,0.1-0.4,0.1-0.6c-1.2,0.3-2.6,1-3.2,1.4
		c-0.1,0.1-0.3,0-0.4-0.1c-0.1-0.1,0-0.3,0.1-0.4c0.1-0.1,2-1.3,3.7-1.6c0.4-0.9,1.2-1.8,2.1-2.3c0.2-0.1,0.5-0.2,0.7-0.3
		c0.2-0.8,0.8-1.7,1.5-2.3c0.4-0.4,0.8-0.7,1.3-0.9c0.3-1.2,1.4-2.3,1.4-2.4c0.1-0.1,0.3-0.1,0.4,0c0.1,0.1,0.1,0.3,0,0.4
		c0,0-0.8,0.9-1.2,1.9c0.5-0.1,0.9,0,1.3,0.2c0.7,0.4,1,0.9,1,1.4c0,0.4-0.3,0.8-0.7,0.9c-0.5,0.2-1.2,0.1-1.7-0.4
		c-0.3-0.3-0.5-0.7-0.5-1.1c0-0.1,0-0.1,0-0.2c-0.3,0.2-0.6,0.4-0.8,0.6c-0.6,0.6-1.1,1.2-1.3,1.8c0.6-0.1,1.1,0.1,1.6,0.3
		c0.8,0.5,0.8,0.9,0.8,1.2c-0.1,0.4-0.6,0.8-1.2,0.9c-0.6,0.1-1.4-0.1-1.8-0.9c-0.1-0.2-0.2-0.5-0.1-0.8c-0.1,0-0.2,0.1-0.4,0.2
		c-0.8,0.4-1.4,1-1.8,1.8c0.5,0,0.9,0.1,1.3,0.4c0.7,0.5,0.5,1.1,0.4,1.3C114.9,86.2,114.3,86.5,113.7,86.5z M113.2,84.4
		c-0.1,0.2-0.1,0.5-0.2,0.7c0,0.5,0.1,0.8,0.4,0.8c0.4,0.1,1.1-0.2,1.3-0.6c0-0.1,0.2-0.4-0.3-0.7C114.1,84.5,113.7,84.4,113.2,84.4
		z M116.1,81.8c0,0.3,0,0.5,0.1,0.7c0.3,0.5,0.8,0.7,1.2,0.6c0.4,0,0.7-0.2,0.7-0.4c0-0.2-0.2-0.4-0.5-0.6
		C117.2,81.8,116.7,81.8,116.1,81.8z M118.9,78.6c0,0.1,0,0.3,0,0.4c0,0.3,0.1,0.6,0.4,0.8c0.4,0.3,0.8,0.5,1.2,0.3
		c0.2-0.1,0.4-0.3,0.4-0.5c0-0.3-0.2-0.7-0.7-0.9C119.7,78.5,119.3,78.5,118.9,78.6z"/>
	<path class="st5" d="M44.9,95.6l2.2-3.3c0,0,0.5,3.9,3.7,3.5s4.6,1.9,4.6,1.9l-3.7,3.4c0,0,0.6-2.9-2.3-2.7
		C46.5,98.5,44.9,95.6,44.9,95.6z"/>
	<path class="st5" d="M95.2,27.7l-3.4-2.1c0,0,3.9-0.6,3.5-3.8c-0.4-3.2,1.8-4.6,1.8-4.6l3.5,3.7c0,0-2.9-0.6-2.7,2.3
		C98.1,26.1,95.2,27.7,95.2,27.7z"/>
	<path class="st5" d="M118.4,54.3l2.8-2.9c0,0-0.3,3.9,2.9,4.2c3.2,0.3,4.1,2.7,4.1,2.7l-4.3,2.6c0,0,1.2-2.7-1.7-3.1
		C119.4,57.5,118.4,54.3,118.4,54.3z"/>
</g>
</svg>
